<svg xmlns="http://www.w3.org/2000/svg" viewBox="0 0 512 512" id="ethereum">
  <circle cx="256" cy="256" r="248.5" fill="#4956fc"></circle>
  <circle cx="256" cy="256" r="198.5" fill="#5e8df7"></circle>
  <path fill="#fefefe" d="m349.4 244.12-15.54 8.82-79.01 29.82-92.25-38.64 92.25-158.08 94.55 158.08z"></path>
  <path fill="#c0cbf8" d="m349.4 244.12-94.55 53.64-92.25-53.64 92.25-43.07 94.55 43.07z"></path>
  <path fill="#fefefe" d="m349.4 281.84-94.55 144.12-92.25-144.12 92.25 53.63 94.55-53.63z"></path>
  <path fill="#c0cbf8" d="m349.4 281.84-94.55 144.12v-90.49l94.55-53.63zM349.4 244.12l-15.54 8.82-79.01-45.18V86.04l94.55 158.08z"></path>
  <path fill="#8095f0" d="m349.4 244.12-94.55 53.64v-96.71l94.55 43.07z"></path>
</svg>
