<svg xmlns="http://www.w3.org/2000/svg" viewBox="0 0 48 48" role="img" aria-label="Google">
  <path fill="#EA4335" d="M24 9.5c3.3 0 6.2 1.1 8.5 3.2l6-6C34.8 3.2 29.8 1 24 1 14.6 1 6.6 6.4 2.7 14.2l7 5.4C11.8 13.6 17.5 9.5 24 9.5z"/>
  <path fill="#4285F4" d="M46.2 24.5c0-1.6-.1-2.7-.4-3.9H24v7.4h12.7c-.3 2-1.9 5-5.2 7l6.2 4.8c3.7-3.4 5.5-8.3 5.5-14.3z"/>
  <path fill="#FBBC05" d="M9.7 28.4c-.5-1.4-.8-2.9-.8-4.4s.3-3 .8-4.4l-7-5.4C1.6 16.6 1 20.2 1 24c0 3.8.6 7.4 1.7 10.8l7-5.4z"/>
  <path fill="#34A853" d="M24 47c5.8 0 10.7-1.9 14.3-5.2l-6.2-4.8c-1.7 1.2-4 2.1-8.1 2.1-6.5 0-12.2-4.1-14.3-10.1l-7 5.4C6.6 41.6 14.6 47 24 47z"/>
</svg>

