<svg xmlns="http://www.w3.org/2000/svg" viewBox="0 0 24 24" role="img" aria-label="Ajna">
  <title>Ajna</title>
  <g transform="translate(2 4.2222222222) scale(1.1111111111)">
    <path fill="#B5179E" fill-rule="evenodd" d="M17.475 4.654C14.728 2.043 11.905.672 9.02.672c-2.886 0-5.71 1.37-8.456 3.982a.587.587 0 1 0 .81.85c2.61-2.482 5.16-3.658 7.646-3.658 2.484 0 5.03 1.174 7.64 3.652.04.043.074.101.093.162a.594.594 0 0 0-.01.11c0 .139-.046.214-.083.245a21.531 21.531 0 0 1-.215.202c-2.432-2.021-4.912-3.077-7.44-3.077-2.663 0-5.273 1.172-7.83 3.41a.596.596 0 0 0-.014.012l-.006.006c-.196.167-.409.35-.624.564-.588.552-.635 1.471-.116 2.101a.615.615 0 0 0 .178.185c2.728 2.575 5.532 3.926 8.397 3.926 2.886 0 5.71-1.37 8.456-3.982a.587.587 0 1 0-.81-.85c-2.611 2.482-5.16 3.658-7.646 3.658-2.486 0-5.035-1.176-7.646-3.659l-.004-.004c-.16-.172-.13-.403-.003-.52a6.19 6.19 0 0 1 .212-.202c2.541 2.115 5.135 3.18 7.776 3.087 2.53-.088 5.007-1.235 7.43-3.353a.587.587 0 0 0 .183-.162c.167-.15.334-.304.5-.462.287-.253.423-.586.465-.903a.584.584 0 0 0 .044-.222c0-.421-.183-.828-.46-1.105l-.01-.01Zm-8.47-.34c2.131 0 4.308.868 6.544 2.688-2.134 1.752-4.221 2.626-6.266 2.697-2.223.077-4.495-.79-6.83-2.691C4.69 5.183 6.87 4.314 9.003 4.314Z" clip-rule="evenodd"/>
    <path fill="#B5179E" fill-rule="evenodd" d="M9 4.816A2.182 2.182 0 1 0 9 9.18a2.182 2.182 0 0 0 0-4.364ZM9 8.09a1.09 1.09 0 1 0 0-2.182A1.09 1.09 0 0 0 9 8.09Z" clip-rule="evenodd"/>
  </g>
</svg>
