<svg xmlns="http://www.w3.org/2000/svg" width="1080" height="1920" viewBox="0 0 1080 1920" fill="none">
  <defs>
    <radialGradient id="bg" cx="0" cy="0" r="1" gradientUnits="userSpaceOnUse" gradientTransform="translate(420 420) rotate(55) scale(1900 1400)">
      <stop stop-color="#141414"/>
      <stop offset="0.55" stop-color="#070707"/>
      <stop offset="1" stop-color="#000000"/>
    </radialGradient>
    <linearGradient id="gold" x1="220" y1="380" x2="820" y2="1280" gradientUnits="userSpaceOnUse">
      <stop stop-color="#F7D680"/>
      <stop offset="0.45" stop-color="#C7A24C"/>
      <stop offset="1" stop-color="#7A5C1E"/>
    </linearGradient>
    <linearGradient id="glass" x1="140" y1="520" x2="940" y2="1600" gradientUnits="userSpaceOnUse">
      <stop stop-color="rgba(255,255,255,0.10)"/>
      <stop offset="0.4" stop-color="rgba(255,255,255,0.04)"/>
      <stop offset="1" stop-color="rgba(255,255,255,0.08)"/>
    </linearGradient>
  </defs>

  <rect width="1080" height="1920" fill="url(#bg)"/>

  <text x="140" y="210" fill="rgba(255,255,255,0.88)" font-family="Inter, ui-sans-serif, system-ui" font-size="54" font-weight="300">
    Creator Vaults
  </text>
  <text x="140" y="280" fill="rgba(255,255,255,0.55)" font-family="Inter, ui-sans-serif, system-ui" font-size="26" font-weight="300">
    Creator coin vaults on Base
  </text>

  <circle cx="270" cy="560" r="150" fill="url(#gold)" opacity="0.92"/>
  <circle cx="270" cy="560" r="156" stroke="rgba(255,255,255,0.16)" stroke-width="2"/>
  <path d="M170 500c55-60 150-65 210-25" stroke="rgba(255,255,255,0.16)" stroke-width="10" stroke-linecap="round"/>

  <rect x="140" y="760" width="800" height="420" rx="28" fill="url(#glass)" stroke="rgba(255,255,255,0.10)"/>
  <rect x="180" y="820" width="420" height="14" rx="7" fill="rgba(255,255,255,0.20)"/>
  <rect x="180" y="860" width="660" height="10" rx="5" fill="rgba(255,255,255,0.12)"/>
  <rect x="180" y="890" width="610" height="10" rx="5" fill="rgba(255,255,255,0.10)"/>

  <rect x="180" y="980" width="220" height="54" rx="27" fill="rgba(247,214,128,0.22)" stroke="rgba(247,214,128,0.35)"/>
  <text x="290" y="1015" text-anchor="middle" fill="rgba(255,255,255,0.82)" font-family="Inter, ui-sans-serif, system-ui" font-size="16" font-weight="500">
    Browse vaults
  </text>

  <rect x="420" y="980" width="250" height="54" rx="27" fill="rgba(255,255,255,0.06)" stroke="rgba(255,255,255,0.12)"/>
  <text x="545" y="1015" text-anchor="middle" fill="rgba(255,255,255,0.68)" font-family="Inter, ui-sans-serif, system-ui" font-size="16" font-weight="500">
    Trade creator coins
  </text>

  <rect x="140" y="1260" width="800" height="420" rx="28" fill="rgba(255,255,255,0.03)" stroke="rgba(255,255,255,0.08)"/>
  <text x="180" y="1330" fill="rgba(255,255,255,0.70)" font-family="Inter, ui-sans-serif, system-ui" font-size="20" font-weight="500">
    Market
  </text>
  <rect x="180" y="1370" width="720" height="12" rx="6" fill="rgba(255,255,255,0.10)"/>
  <rect x="180" y="1410" width="540" height="10" rx="5" fill="rgba(255,255,255,0.08)"/>
  <rect x="180" y="1450" width="670" height="10" rx="5" fill="rgba(255,255,255,0.08)"/>

  <text x="140" y="1820" fill="rgba(255,255,255,0.40)" font-family="Inter, ui-sans-serif, system-ui" font-size="18" font-weight="300">
    4626.fun
  </text>
</svg>


