<svg xmlns="http://www.w3.org/2000/svg" viewBox="0 0 64 64" fill="none">
  <defs>
    <radialGradient id="bg" cx="0" cy="0" r="1" gradientUnits="userSpaceOnUse" gradientTransform="translate(18 16) rotate(55) scale(60 60)">
      <stop stop-color="#3B82F6"/>
      <stop offset="0.6" stop-color="#2775CA"/>
      <stop offset="1" stop-color="#0B2B55"/>
    </radialGradient>
  </defs>
  <circle cx="32" cy="32" r="32" fill="url(#bg)"/>
  <circle cx="32" cy="32" r="26" stroke="rgba(255,255,255,0.28)" stroke-width="2"/>

  <!-- Simplified USDC mark (stylized “S” + strokes + side arcs) -->
  <path
    d="M36.8 24.6c-.8-1.6-2.5-2.7-4.8-2.7-2.6 0-4.4 1.2-4.4 3 0 2 2.2 2.6 5.2 3.3 3.9.9 7.8 2 7.8 6.6 0 3.9-3.2 6.6-8.6 6.6-3.7 0-6.8-1.3-8.6-4"
    stroke="white"
    stroke-width="3.4"
    stroke-linecap="round"
    stroke-linejoin="round"
  />
  <path
    d="M27.2 39.4c.8 1.6 2.6 2.7 5 2.7 2.9 0 4.8-1.2 4.8-3.1 0-2.2-2.3-2.7-5.6-3.5-3.8-.9-7.4-2-7.4-6.4 0-3.8 3.2-6.4 8.4-6.4 3.5 0 6.4 1.2 8.2 3.6"
    stroke="white"
    stroke-width="3.4"
    stroke-linecap="round"
    stroke-linejoin="round"
    opacity="0.0"
  />

  <!-- Vertical strokes -->
  <path d="M32 18.5v6" stroke="white" stroke-width="3" stroke-linecap="round" />
  <path d="M32 39.5v6" stroke="white" stroke-width="3" stroke-linecap="round" />

  <!-- Side arcs -->
  <path
    d="M18.7 24.2c-2.2 2.3-3.5 5.4-3.5 7.8 0 2.4 1.3 5.6 3.5 7.8"
    stroke="rgba(255,255,255,0.65)"
    stroke-width="2.2"
    stroke-linecap="round"
  />
  <path
    d="M45.3 24.2c2.2 2.3 3.5 5.4 3.5 7.8 0 2.4-1.3 5.6-3.5 7.8"
    stroke="rgba(255,255,255,0.65)"
    stroke-width="2.2"
    stroke-linecap="round"
  />

  <circle cx="32" cy="32" r="31.25" stroke="rgba(255,255,255,0.06)"/>
</svg>


